<svg width="16" height="20" viewBox="0 0 16 20" fill="none" xmlns="http://www.w3.org/2000/svg">
<path d="M7.68124 19.5063C8.73312 19.5063 9.59374 18.6456 9.59374 17.5938H5.76874C5.76874 18.6456 6.62937 19.5063 7.68124 19.5063ZM13.4187 13.7688V8.9875C13.4187 6.05181 11.8601 3.59425 9.11562 2.944V2.29375C9.11562 1.50006 8.47493 0.859375 7.68124 0.859375C6.88756 0.859375 6.24687 1.50006 6.24687 2.29375V2.944C3.51199 3.59425 1.94374 6.04225 1.94374 8.9875V13.7688L0.0312424 15.6813V16.6375H15.3312V15.6813L13.4187 13.7688ZM11.5062 14.725H3.85624V8.9875C3.85624 6.616 5.30018 4.68438 7.68124 4.68438C10.0623 4.68438 11.5062 6.616 11.5062 8.9875V14.725Z" fill="#181819" fill-opacity="0.9"/>
</svg>
